<svg width="44" height="41" viewBox="0 0 44 41" fill="none" xmlns="http://www.w3.org/2000/svg">
<g filter="url(#filter0_d_1026_11949)">
<path d="M21.9705 14.1993C22.8371 14.1993 23.6953 14.0286 24.496 13.6969C25.2967 13.3652 26.0243 12.8791 26.6371 12.2663C27.2499 11.6534 27.7361 10.9259 28.0677 10.1252C28.3994 9.32449 28.5701 8.4663 28.5701 7.59963C28.5701 6.73295 28.3994 5.87476 28.0677 5.07406C27.7361 4.27336 27.2499 3.54582 26.6371 2.93299C26.0243 2.32015 25.2967 1.83403 24.496 1.50237C23.6953 1.1707 22.8371 1 21.9705 1C20.2201 1 18.5415 1.69532 17.3038 2.93299C16.0662 4.17066 15.3708 5.8493 15.3708 7.59963C15.3708 9.34996 16.0662 11.0286 17.3038 12.2663C18.5415 13.5039 20.2201 14.1993 21.9705 14.1993ZM5 33.8096V34.9409H38.9409V33.8096C38.9409 29.5858 38.9409 27.4739 38.1188 25.8599C37.3957 24.4407 36.2419 23.2869 34.8228 22.5638C33.2087 21.7417 31.0968 21.7417 26.8731 21.7417H17.0679C12.8441 21.7417 10.7322 21.7417 9.11817 22.5638C7.69903 23.2869 6.54523 24.4407 5.82213 25.8599C5 27.4739 5 29.5858 5 33.8096Z" fill="black"/>
<path d="M21.9705 14.1993C22.8371 14.1993 23.6953 14.0286 24.496 13.6969C25.2967 13.3652 26.0243 12.8791 26.6371 12.2663C27.2499 11.6534 27.7361 10.9259 28.0677 10.1252C28.3994 9.32449 28.5701 8.4663 28.5701 7.59963C28.5701 6.73295 28.3994 5.87476 28.0677 5.07406C27.7361 4.27336 27.2499 3.54582 26.6371 2.93299C26.0243 2.32015 25.2967 1.83403 24.496 1.50237C23.6953 1.1707 22.8371 1 21.9705 1C20.2201 1 18.5415 1.69532 17.3038 2.93299C16.0662 4.17066 15.3708 5.8493 15.3708 7.59963C15.3708 9.34996 16.0662 11.0286 17.3038 12.2663C18.5415 13.5039 20.2201 14.1993 21.9705 14.1993ZM5 33.8096V34.9409H38.9409V33.8096C38.9409 29.5858 38.9409 27.4739 38.1188 25.8599C37.3957 24.4407 36.2419 23.2869 34.8228 22.5638C33.2087 21.7417 31.0968 21.7417 26.8731 21.7417H17.0679C12.8441 21.7417 10.7322 21.7417 9.11817 22.5638C7.69903 23.2869 6.54523 24.4407 5.82213 25.8599C5 27.4739 5 29.5858 5 33.8096Z" stroke="black" stroke-width="2" stroke-linecap="round" stroke-linejoin="round"/>
</g>
<defs>
<filter id="filter0_d_1026_11949" x="0" y="0" width="43.9409" height="43.9409" filterUnits="userSpaceOnUse" color-interpolation-filters="sRGB">
<feFlood flood-opacity="0" result="BackgroundImageFix"/>
<feColorMatrix in="SourceAlpha" type="matrix" values="0 0 0 0 0 0 0 0 0 0 0 0 0 0 0 0 0 0 127 0" result="hardAlpha"/>
<feOffset dy="4"/>
<feGaussianBlur stdDeviation="2"/>
<feComposite in2="hardAlpha" operator="out"/>
<feColorMatrix type="matrix" values="0 0 0 0 0 0 0 0 0 0 0 0 0 0 0 0 0 0 0.25 0"/>
<feBlend mode="normal" in2="BackgroundImageFix" result="effect1_dropShadow_1026_11949"/>
<feBlend mode="normal" in="SourceGraphic" in2="effect1_dropShadow_1026_11949" result="shape"/>
</filter>
</defs>
</svg>
